<svg width="32" height="32" viewBox="0 0 32 32" fill="none" xmlns="http://www.w3.org/2000/svg">
<path d="M3.20459 9.41439L15.9998 15.8112L28.795 9.41439C28.7476 8.5991 28.3903 7.83277 27.7963 7.27236C27.2023 6.71194 26.4165 6.39984 25.5998 6.39999H6.39979C5.58313 6.39984 4.79731 6.71194 4.20327 7.27236C3.60924 7.83277 3.25196 8.5991 3.20459 9.41439Z" fill="#8102FF"/>
<path d="M28.8002 12.9888L16.0002 19.3888L3.2002 12.9888V22.4C3.2002 23.2487 3.53734 24.0626 4.13745 24.6627C4.73757 25.2629 5.5515 25.6 6.4002 25.6H25.6002C26.4489 25.6 27.2628 25.2629 27.8629 24.6627C28.4631 24.0626 28.8002 23.2487 28.8002 22.4V12.9888Z" fill="#8102FF"/>
</svg>
