<svg width="24" height="24" viewBox="0 0 24 24" fill="none" xmlns="http://www.w3.org/2000/svg">
<path fill-rule="evenodd" clip-rule="evenodd" d="M7.19999 2.3999C6.88173 2.3999 6.57651 2.52633 6.35147 2.75137C6.12642 2.97642 5.99999 3.28164 5.99999 3.5999V4.7999H4.79999C4.16347 4.7999 3.55302 5.05276 3.10294 5.50285C2.65285 5.95293 2.39999 6.56338 2.39999 7.1999V19.1999C2.39999 19.8364 2.65285 20.4469 3.10294 20.897C3.55302 21.347 4.16347 21.5999 4.79999 21.5999H19.2C19.8365 21.5999 20.447 21.347 20.897 20.897C21.3471 20.4469 21.6 19.8364 21.6 19.1999V7.1999C21.6 6.56338 21.3471 5.95293 20.897 5.50285C20.447 5.05276 19.8365 4.7999 19.2 4.7999H18V3.5999C18 3.28164 17.8736 2.97642 17.6485 2.75137C17.4235 2.52633 17.1183 2.3999 16.8 2.3999C16.4817 2.3999 16.1765 2.52633 15.9515 2.75137C15.7264 2.97642 15.6 3.28164 15.6 3.5999V4.7999H8.39999V3.5999C8.39999 3.28164 8.27357 2.97642 8.04852 2.75137C7.82348 2.52633 7.51825 2.3999 7.19999 2.3999ZM7.19999 8.3999C6.88173 8.3999 6.57651 8.52633 6.35147 8.75137C6.12642 8.97642 5.99999 9.28164 5.99999 9.5999C5.99999 9.91816 6.12642 10.2234 6.35147 10.4484C6.57651 10.6735 6.88173 10.7999 7.19999 10.7999H16.8C17.1183 10.7999 17.4235 10.6735 17.6485 10.4484C17.8736 10.2234 18 9.91816 18 9.5999C18 9.28164 17.8736 8.97642 17.6485 8.75137C17.4235 8.52633 17.1183 8.3999 16.8 8.3999H7.19999Z" fill="white"/>
</svg>
