<svg width="16" height="10" viewBox="0 0 16 10" fill="none" xmlns="http://www.w3.org/2000/svg">
<path fill-rule="evenodd" clip-rule="evenodd" d="M10 2.01218C9.7348 2.01218 9.4805 1.90678 9.2929 1.71928C9.1054 1.53178 9 1.27738 9 1.01218C9 0.74698 9.1054 0.49258 9.2929 0.30508C9.4805 0.11748 9.7348 0.0121803 10 0.0121803H15C15.2653 0.0121803 15.5196 0.11748 15.7071 0.30508C15.8947 0.49258 16 0.74698 16 1.01218V6.01216C16 6.27738 15.8947 6.53173 15.7071 6.71927C15.5196 6.9068 15.2653 7.01216 15 7.01216C14.7348 7.01216 14.4805 6.9068 14.2929 6.71927C14.1054 6.53173 14 6.27738 14 6.01216V3.42618L9.707 7.71916C9.5195 7.90663 9.2652 8.01195 9 8.01195C8.7349 8.01195 8.4806 7.90663 8.293 7.71916L6.00004 5.42616L1.70704 9.71916C1.51844 9.90132 1.26584 10.0021 1.00364 9.99984C0.741437 9.99756 0.490627 9.89239 0.305217 9.70698C0.119807 9.52157 0.014647 9.27076 0.012367 9.00856C0.010087 8.74637 0.110877 8.49376 0.293037 8.30516L5.29304 3.30518C5.48057 3.11768 5.73488 3.01238 6.00004 3.01238C6.26521 3.01238 6.51951 3.11768 6.70704 3.30518L9 5.59816L12.586 2.01218H10Z" fill="white"/>
</svg>
