<svg width="20" height="20" viewBox="0 0 20 20" fill="none" xmlns="http://www.w3.org/2000/svg">
<path fill-rule="evenodd" clip-rule="evenodd" d="M11.3 1.04608C11.503 1.10992 11.6803 1.23686 11.8062 1.40843C11.9321 1.58001 12 1.78727 12 2.00008V7.00008H16C16.1829 7 16.3623 7.05009 16.5187 7.1449C16.6752 7.23972 16.8026 7.37562 16.8871 7.53782C16.9717 7.70002 17.0101 7.88231 16.9983 8.06484C16.9865 8.24738 16.9248 8.42317 16.82 8.57308L9.81996 18.5731C9.69813 18.7476 9.52379 18.8787 9.3223 18.9473C9.12081 19.0159 8.90268 19.0185 8.69965 18.9546C8.49663 18.8906 8.31929 18.7636 8.19345 18.5919C8.06761 18.4203 7.99982 18.2129 7.99996 18.0001V13.0001H3.99996C3.81704 13.0002 3.6376 12.9501 3.48117 12.8553C3.32475 12.7604 3.19732 12.6245 3.11277 12.4623C3.02821 12.3001 2.98976 12.1178 3.00161 11.9353C3.01346 11.7528 3.07514 11.577 3.17996 11.4271L10.18 1.42708C10.302 1.25286 10.4763 1.12209 10.6778 1.05375C10.8792 0.985417 11.0971 0.983079 11.3 1.04708V1.04608Z" fill="white"/>
</svg>
