<svg width="24" height="25" viewBox="0 0 24 25" fill="none" xmlns="http://www.w3.org/2000/svg">
<path d="M7.55016 22.7453C16.6045 22.7453 21.5583 15.2421 21.5583 8.73722C21.5583 8.52628 21.5536 8.31066 21.5442 8.09972C22.5079 7.40282 23.3395 6.53962 24 5.55066C23.1025 5.94996 22.1496 6.21074 21.1739 6.3241C22.2013 5.70827 22.9705 4.74083 23.3391 3.60113C22.3726 4.17392 21.3156 4.57797 20.2134 4.79597C19.4708 4.00692 18.489 3.48448 17.4197 3.30941C16.3504 3.13435 15.2532 3.31641 14.2977 3.82746C13.3423 4.3385 12.5818 5.15007 12.1338 6.13667C11.6859 7.12328 11.5754 8.22998 11.8195 9.28566C9.86249 9.18745 7.94794 8.67907 6.19998 7.79346C4.45203 6.90785 2.90969 5.6648 1.67297 4.14488C1.0444 5.2286 0.852057 6.51101 1.13503 7.73145C1.418 8.9519 2.15506 10.0188 3.19641 10.7153C2.41463 10.6905 1.64998 10.48 0.965625 10.1013V10.1622C0.964925 11.2995 1.3581 12.4019 2.07831 13.2821C2.79852 14.1623 3.80132 14.7659 4.91625 14.9903C4.19206 15.1885 3.43198 15.2174 2.69484 15.0747C3.00945 16.0528 3.62157 16.9083 4.44577 17.5217C5.26997 18.1351 6.26512 18.476 7.29234 18.4966C5.54842 19.8665 3.39417 20.6095 1.17656 20.606C0.783287 20.6054 0.390399 20.5813 0 20.5338C2.25286 21.9791 4.87353 22.7467 7.55016 22.7453Z" fill="#B5BDD1"/>
</svg>
