<svg width="24" height="25" viewBox="0 0 24 25" fill="none" xmlns="http://www.w3.org/2000/svg">
<g clip-path="url(#clip0_67_119)">
<path d="M22.2234 0.995117H1.77187C0.792187 0.995117 0 1.76855 0 2.7248V23.2607C0 24.217 0.792187 24.9951 1.77187 24.9951H22.2234C23.2031 24.9951 24 24.217 24 23.2654V2.7248C24 1.76855 23.2031 0.995117 22.2234 0.995117ZM7.12031 21.4467H3.55781V9.99043H7.12031V21.4467ZM5.33906 8.42949C4.19531 8.42949 3.27188 7.50605 3.27188 6.36699C3.27188 5.22793 4.19531 4.30449 5.33906 4.30449C6.47813 4.30449 7.40156 5.22793 7.40156 6.36699C7.40156 7.50137 6.47813 8.42949 5.33906 8.42949ZM20.4516 21.4467H16.8937V15.8779C16.8937 14.5514 16.8703 12.8404 15.0422 12.8404C13.1906 12.8404 12.9094 14.2889 12.9094 15.7842V21.4467H9.35625V9.99043H12.7687V11.5561H12.8156C13.2891 10.6561 14.4516 9.70449 16.1813 9.70449C19.7859 9.70449 20.4516 12.0764 20.4516 15.1607V21.4467V21.4467Z" fill="#B5BDD1"/>
</g>
<defs>
<clipPath id="clip0_67_119">
<rect width="24" height="24" fill="white" transform="translate(0 0.995117)"/>
</clipPath>
</defs>
</svg>
