<svg width="20" height="20" viewBox="0 0 20 20" fill="none" xmlns="http://www.w3.org/2000/svg">
<path fill-rule="evenodd" clip-rule="evenodd" d="M4 2C3.46957 2 2.96086 2.21071 2.58579 2.58579C2.21071 2.96086 2 3.46957 2 4V15C2 15.7956 2.31607 16.5587 2.87868 17.1213C3.44129 17.6839 4.20435 18 5 18C5.79565 18 6.55871 17.6839 7.12132 17.1213C7.68393 16.5587 8 15.7956 8 15V4C8 3.46957 7.78929 2.96086 7.41421 2.58579C7.03914 2.21071 6.53043 2 6 2H4ZM5 16C5.26522 16 5.51957 15.8946 5.70711 15.7071C5.89464 15.5196 6 15.2652 6 15C6 14.7348 5.89464 14.4804 5.70711 14.2929C5.51957 14.1054 5.26522 14 5 14C4.73478 14 4.48043 14.1054 4.29289 14.2929C4.10536 14.4804 4 14.7348 4 15C4 15.2652 4.10536 15.5196 4.29289 15.7071C4.48043 15.8946 4.73478 16 5 16ZM10 14.243L14.9 9.343C15.2749 8.96795 15.4856 8.45933 15.4856 7.929C15.4856 7.39867 15.2749 6.89006 14.9 6.515L13.485 5.1C13.1099 4.72506 12.6013 4.51443 12.071 4.51443C11.5407 4.51443 11.0321 4.72506 10.657 5.1L10 5.757V14.243ZM16 18H9.071L15.071 12H16C16.5304 12 17.0391 12.2107 17.4142 12.5858C17.7893 12.9609 18 13.4696 18 14V16C18 16.5304 17.7893 17.0391 17.4142 17.4142C17.0391 17.7893 16.5304 18 16 18V18Z" fill="white"/>
</svg>
