<svg width="20" height="20" viewBox="0 0 20 20" fill="none" xmlns="http://www.w3.org/2000/svg">
<path fill-rule="evenodd" clip-rule="evenodd" d="M12 12.9999C11.7348 12.9999 11.4805 13.1053 11.2929 13.2928C11.1054 13.4803 11 13.7347 11 13.9999C11 14.2651 11.1054 14.5195 11.2929 14.707C11.4805 14.8946 11.7348 14.9999 12 14.9999H17C17.2653 14.9999 17.5196 14.8946 17.7071 14.707C17.8947 14.5195 18 14.2651 18 13.9999V8.99992C18 8.7347 17.8947 8.48035 17.7071 8.29281C17.5196 8.10528 17.2653 7.99992 17 7.99992C16.7348 7.99992 16.4805 8.10528 16.2929 8.29281C16.1054 8.48035 16 8.7347 16 8.99992V11.5859L11.707 7.29292C11.5195 7.10545 11.2652 7.00013 11 7.00013C10.7349 7.00013 10.4806 7.10545 10.293 7.29292L8.00004 9.58592L3.70704 5.29292C3.51844 5.11076 3.26584 5.00997 3.00364 5.01224C2.74144 5.01452 2.49063 5.11969 2.30522 5.3051C2.11981 5.49051 2.01465 5.74132 2.01237 6.00352C2.01009 6.26571 2.11088 6.51832 2.29304 6.70692L7.29304 11.7069C7.48057 11.8944 7.73488 11.9997 8.00004 11.9997C8.26521 11.9997 8.51951 11.8944 8.70704 11.7069L11 9.41392L14.586 12.9999H12Z" fill="white"/>
</svg>
